<svg width="20" height="22" viewBox="0 0 20 22" fill="none" xmlns="http://www.w3.org/2000/svg">
<path fill-rule="evenodd" clip-rule="evenodd" d="M18.9816 17.4999L17.7761 9.38963C17.6478 8.4795 16.8294 7.85026 15.8004 7.85026H15.211V5.21011C15.211 4.22231 14.8663 3.48166 14.2244 2.77004C13.6882 2.17375 12.6309 1 10.2123 1C7.62556 1 6.12447 2.07018 5.64492 2.77004C5.14205 3.46048 4.89645 4.25997 4.89645 5.21011V7.84948H4.21375C3.20803 7.84948 2.37797 8.4591 2.23727 9.30882L1.04422 17.4795C0.881041 18.3504 1.17327 19.2402 1.8518 19.9196C2.5295 20.5999 3.52357 21 4.57592 21H15.4382C16.444 21 17.3681 20.6501 18.0458 19.9996C18.3896 19.675 18.652 19.2821 18.814 18.8496C18.9759 18.4171 19.0331 17.956 18.9816 17.4999ZM15.2101 12.0219V12.2149C15.2101 12.3718 15.144 12.5223 15.0263 12.6333C14.9085 12.7442 14.7489 12.8065 14.5824 12.8065C14.4159 12.8065 14.2562 12.7442 14.1385 12.6333C14.0208 12.5223 13.9546 12.3718 13.9546 12.2149V9.03028H15.2093L15.2101 12.0219ZM6.09949 9.58813L6.10032 9.62108V12.2149C6.10032 12.3717 6.03423 12.5221 5.91658 12.633C5.79894 12.7438 5.63937 12.8061 5.47299 12.8061C5.30661 12.8061 5.14705 12.7438 5.0294 12.633C4.91176 12.5221 4.84566 12.3717 4.84566 12.2149V12.0219L4.84483 9.03028H6.09949V9.58813ZM6.04787 5.21011C6.04787 4.48986 6.24935 3.88965 6.67895 3.38986C7.13602 2.82967 8.06265 2.18002 9.91508 2.18002H10.3047C12.4527 2.25064 14.0779 3.63936 13.9838 5.37017V7.81966C12.829 7.78985 10.587 7.81025 6.06119 7.84006V5.21011H6.04787ZM15.9086 9.03028C16.2417 9.03028 16.4789 9.22957 16.5264 9.54027L17.7394 17.6396C17.7739 17.9282 17.7383 18.2205 17.6353 18.4942C17.5324 18.768 17.3647 19.0161 17.145 19.2198C16.7287 19.6097 16.1584 19.8302 15.5398 19.8302H4.48434C3.83078 19.8302 3.21219 19.5901 2.78426 19.1695C2.36798 18.76 2.17816 18.21 2.28473 17.66L3.49776 9.47985C3.54521 9.22957 3.79498 9.04048 4.11635 9.04048C4.0922 9.03028 15.9086 9.03028 15.9086 9.03028Z" fill="#111111" stroke="#111111" stroke-width="0.1"/>
</svg>
