<svg width="20" height="17" viewBox="0 0 20 17" fill="none" xmlns="http://www.w3.org/2000/svg">
<path d="M5.99607 1C4.6629 1 3.40613 1.521 2.46366 2.4633C1.51741 3.40938 0.996206 4.66605 1.00002 6.00305C1.00004 7.34009 1.52556 8.59334 2.47172 9.53933L10.0057 16L17.5325 9.55406C18.4788 8.60799 18.9999 7.35139 19 6.0145C19.0038 4.67756 18.4865 3.42084 17.5401 2.47469C16.5938 1.52856 15.3408 1.01139 14.0039 1.01139C12.667 1.01139 11.4102 1.53239 10.4639 2.47848L10.0057 2.93663L9.53988 2.47089C8.59366 1.52483 7.3331 1 5.99607 1Z" stroke="#A4A4A4" stroke-width="1.5" stroke-linejoin="round"/>
</svg>
