<svg width="18" height="18" viewBox="0 0 18 18" fill="none" xmlns="http://www.w3.org/2000/svg">
<path d="M16.4697 17.5303C16.7626 17.8232 17.2374 17.8232 17.5303 17.5303C17.8232 17.2374 17.8232 16.7626 17.5303 16.4697L16.4697 17.5303ZM11.329 3.3935C13.5203 5.58483 13.5203 9.13767 11.329 11.329L12.3897 12.3897C15.1668 9.61255 15.1668 5.10995 12.3897 2.33284L11.329 3.3935ZM11.329 11.329C9.13767 13.5203 5.58483 13.5203 3.3935 11.329L2.33284 12.3897C5.10995 15.1668 9.61255 15.1668 12.3897 12.3897L11.329 11.329ZM3.3935 11.329C1.20217 9.13767 1.20217 5.58483 3.3935 3.3935L2.33284 2.33284C-0.444279 5.10995 -0.444279 9.61255 2.33284 12.3897L3.3935 11.329ZM3.3935 3.3935C5.58483 1.20217 9.13767 1.20217 11.329 3.3935L12.3897 2.33284C9.61255 -0.444279 5.10995 -0.444279 2.33284 2.33284L3.3935 3.3935ZM11.329 12.3897L16.4697 17.5303L17.5303 16.4697L12.3897 11.329L11.329 12.3897Z" fill="#111111"/>
</svg>
