<svg width="364" height="223" viewBox="0 0 364 223" fill="none" xmlns="http://www.w3.org/2000/svg">
<path d="M20.2031 0.265625C27.2969 0.265625 31.7812 8.17187 33.6562 23.9844C34.1875 28.7344 34.4531 33.2812 34.4531 37.625V44.6094C34.4531 69.9531 30.8125 92.9375 23.5312 113.562C21.0625 118.781 18.5156 121.391 15.8906 121.391H14.8594C11.1406 121.391 6.59375 118.297 1.21875 112.109C0.40625 110.453 0 109.078 0 107.984V107.562C0.1875 106.188 0.8125 105.5 1.875 105.5H2.0625C3.09375 105.5 4.1875 106.812 5.34375 109.438C9.71875 114.25 13.0938 116.656 15.4688 116.656C17.75 116.656 20.7812 108.875 24.5625 93.3125C24.8438 91.9375 24.9844 91.0469 24.9844 90.6406H19.5938C12.3125 89.9844 8.67188 88.8125 8.67188 87.125C8.92188 86.625 9.32812 86.2812 9.89062 86.0938C11.8281 86.5 14.3125 86.8438 17.3438 87.125C20.1875 87 22.7969 86.9375 25.1719 86.9375H25.7812C28.6875 71 30.1406 55.4531 30.1406 40.2969C30.1406 15.7969 26.8281 3.54688 20.2031 3.54688H19.5938C16 3.54688 13.4531 5.54687 11.9531 9.54688C11.6094 12.1719 11.1406 13.4844 10.5469 13.4844H9.89062C9.20312 13.1719 8.85938 12.4844 8.85938 11.4219V11C8.85938 5.875 11.6094 2.4375 17.1094 0.6875C18.2969 0.40625 19.3281 0.265625 20.2031 0.265625ZM60.3125 61.1562C61.2188 61.4688 61.6719 62.0781 61.6719 62.9844C60.7656 68.2344 56.5938 77.2656 49.1562 90.0781C52.5 95.7656 55.9844 108.906 59.6094 129.5C60.9844 139.562 61.6719 146.328 61.6719 149.797C61.4219 154.047 60.7344 156.172 59.6094 156.172H58.25C58 156.172 57.625 155.719 57.125 154.812C57.125 154.625 57.2031 153.859 57.3594 152.516C57.3594 140.141 54.3125 119.938 48.2188 91.9062C47.8125 91.9062 47.2812 92.9688 46.625 95.0938V95.3281C46.625 100.203 46.7812 106.656 47.0938 114.688C46.6562 115.75 45.9688 116.281 45.0312 116.281C43.375 116.281 42.5469 114.016 42.5469 109.484C42.5469 108.297 42.4688 106.156 42.3125 103.062C42.9688 81.2188 43.7969 70.0625 44.7969 69.5938C44.7969 69.4375 44.875 69.3594 45.0312 69.3594H45.7344C46.4844 69.3594 46.8594 71.5625 46.8594 75.9688V88.4844H47.0938C54.8438 73.4531 58.7188 64.5781 58.7188 61.8594C59.2812 61.3906 59.8125 61.1562 60.3125 61.1562ZM82.0938 68.2812H82.4688C85 68.2812 87.0156 69.1562 88.5156 70.9062V71.5156C88.5156 71.7656 88.1094 72.0312 87.2969 72.3125C85.3281 71.9062 83.8594 71.7031 82.8906 71.7031C80.4844 71.7031 77.5312 75.0469 74.0312 81.7344C71.0938 88.5156 69.625 95.1562 69.625 101.656C69.625 107.281 71.2344 110.094 74.4531 110.094C77.5781 110.094 81.2656 107.625 85.5156 102.688C85.8281 101.594 86.1562 101.047 86.5 101.047H86.9219C87.2344 101.047 87.4375 101.594 87.5312 102.688C87.5312 105.969 84.9844 109.312 79.8906 112.719C77.8281 113.531 76.2812 113.938 75.25 113.938H73.6562C69.5938 113.938 67.0469 110.984 66.0156 105.078C65.8594 104.391 65.7188 103.047 65.5938 101.047C65.5938 92.2031 68.4844 83.0938 74.2656 73.7188C77.3906 70.0938 80 68.2812 82.0938 68.2812ZM112.312 61.1562C113.219 61.4688 113.672 62.0781 113.672 62.9844C112.766 68.2344 108.594 77.2656 101.156 90.0781C104.5 95.7656 107.984 108.906 111.609 129.5C112.984 139.562 113.672 146.328 113.672 149.797C113.422 154.047 112.734 156.172 111.609 156.172H110.25C110 156.172 109.625 155.719 109.125 154.812C109.125 154.625 109.203 153.859 109.359 152.516C109.359 140.141 106.312 119.938 100.219 91.9062C99.8125 91.9062 99.2812 92.9688 98.625 95.0938V95.3281C98.625 100.203 98.7812 106.656 99.0938 114.688C98.6562 115.75 97.9688 116.281 97.0312 116.281C95.375 116.281 94.5469 114.016 94.5469 109.484C94.5469 108.297 94.4688 106.156 94.3125 103.062C94.9688 81.2188 95.7969 70.0625 96.7969 69.5938C96.7969 69.4375 96.875 69.3594 97.0312 69.3594H97.7344C98.4844 69.3594 98.8594 71.5625 98.8594 75.9688V88.4844H99.0938C106.844 73.4531 110.719 64.5781 110.719 61.8594C111.281 61.3906 111.812 61.1562 112.312 61.1562ZM126.5 68.0469H127.438C128.156 68.0469 128.984 72.6875 129.922 81.9688C132.203 96.4688 133.344 106.297 133.344 111.453V112.812C133.344 114.5 132.656 115.344 131.281 115.344C129.688 115.344 128.781 112.219 128.562 105.969C127.031 88.875 126.266 79.8906 126.266 79.0156C125.734 79.0156 125.125 84.3438 124.438 95C122.625 110.688 121.109 118.531 119.891 118.531H118.719C118.531 118.531 118.156 118.156 117.594 117.406V116.469C121.406 87.4688 123.469 72.4688 123.781 71.4688C124.844 71.125 125.375 70.2812 125.375 68.9375L126.5 68.0469ZM169.516 68.8906C174.047 68.8906 176.672 74.3125 177.391 85.1562V88.3906C177.391 96.8906 175.062 104.859 170.406 112.297C168.156 114.797 166.156 116.047 164.406 116.047H163.703C160.297 116.047 158.281 112.703 157.656 106.016C157.031 102.328 156.719 99.7812 156.719 98.375V97.2031C156.719 94.2344 157.031 91.375 157.656 88.625H156.25C151.062 88.625 147.578 88.3906 145.797 87.9219C145.484 107.266 144.797 116.938 143.734 116.938L142.797 117.172C141.891 117.172 141.344 116.328 141.156 114.641V111.594C142.562 89.2188 143.797 75.1406 144.859 69.3594H145.094C145.719 71.0156 146.031 74.875 146.031 80.9375V82.3438L145.797 84.6875C149.922 84.8438 153.172 84.9219 155.547 84.9219H156.953L158.125 85.1562C160.719 74.3125 164.516 68.8906 169.516 68.8906ZM161.359 98.375C161.359 106.188 162.219 110.75 163.938 112.062H164.172C165.859 112.062 167.938 109.359 170.406 103.953C172.438 97.8594 173.453 92.125 173.453 86.75C172.797 77.625 171.328 73.0625 169.047 73.0625C167.391 73.0625 165.141 76.1562 162.297 82.3438C161.672 88.0312 161.359 93.375 161.359 98.375ZM194.859 69.875C199.172 69.875 202.656 74.25 205.312 83C205.906 84.4375 206.359 87.5469 206.672 92.3281C206.672 99.4531 204.891 105.828 201.328 111.453C208.297 118.109 211.781 129.375 211.781 145.25C211.781 153.812 209.406 170.859 204.656 196.391C203.312 204.203 202.203 212.297 201.328 220.672C200.641 221.703 199.828 222.219 198.891 222.219C197.703 221.812 197.109 221.141 197.109 220.203V219.312C197.109 213.156 199.781 195.141 205.125 165.266C206.438 156.859 207.094 149.828 207.094 144.172C207.094 131.297 204.578 121.734 199.547 115.484C199.016 114.734 198.5 114.359 198 114.359C196.875 115.547 195.312 116.141 193.312 116.141H193.078C189.234 115.328 187.312 113.766 187.312 111.453C187.312 109.766 189.469 108.734 193.781 108.359H193.969C195.375 108.359 196.562 108.578 197.531 109.016C200.938 104.078 202.641 98.2188 202.641 91.4375C202.641 83.125 200.578 76.9688 196.453 72.9688C196.047 72.6875 195.297 72.3906 194.203 72.0781C192.641 72.0781 191.234 73.2031 189.984 75.4531H189.75C189.406 75.4531 189.188 74.9219 189.094 73.8594C190.156 71.2031 192.078 69.875 194.859 69.875ZM218.562 68.1406C218.938 68.1406 219.203 69.0781 219.359 70.9531C219.234 72.5469 219.172 73.7031 219.172 74.4219V82.25C219.203 97.7812 220.547 107.406 223.203 111.125C223.547 111.531 223.953 111.734 224.422 111.734H224.609C226.391 110.797 228.203 107.641 230.047 102.266C232.203 94.7656 233.281 89.0469 233.281 85.1094V74C232.75 73.25 232.484 72.1719 232.484 70.7656C232.484 70.5156 233.094 69.8438 234.312 68.75H234.734C236.734 71.1562 237.734 74.7188 237.734 79.4375V82.0625C237.734 83.6875 237.531 86.7812 237.125 91.3438C237.812 101.594 238.766 113.375 239.984 126.688C239.703 128.438 239.016 129.312 237.922 129.312H237.734C236.391 129.312 235.719 127.422 235.719 123.641C234.656 112.359 234.125 105.703 234.125 103.672H233.891C231.109 111.734 228.094 115.766 224.844 115.766H223.391C221.016 115.766 219.062 113.141 217.531 107.891C216.469 104.203 215.938 98.625 215.938 91.1562V88.9531C216.312 76.0469 216.984 69.1094 217.953 68.1406H218.562ZM255.766 8.89062C258.797 8.89062 261.625 12.8281 264.25 20.7031C264.656 22.8594 264.859 25.1875 264.859 27.6875C264.859 38.625 261.344 52 254.312 67.8125C254.031 69 253.891 69.6406 253.891 69.7344C254.016 70.0156 254.078 70.2344 254.078 70.3906C253.859 70.3906 253.578 70.6719 253.234 71.2344V71.4219C255.172 69.7344 257.281 68.8906 259.562 68.8906C265.938 68.8906 269.75 75.4375 271 88.5312V90.2188C271 101.594 268.328 109.766 262.984 114.734C261.047 115.578 259.703 116 258.953 116C253.266 116 249.391 111.141 247.328 101.422C247.047 98.8594 246.906 96.6719 246.906 94.8594V90.2188C246.906 86.875 247.406 82.2969 248.406 76.4844C248.125 61.8594 247.984 51.6562 247.984 45.875C249.016 21.2188 251.609 8.89062 255.766 8.89062ZM256 13.1094C253.031 21.7031 251.547 32.625 251.547 45.875V48.4062C251.547 52.9688 251.625 59.0156 251.781 66.5469V66.7812H251.969C258.031 50.8125 261.062 37.7188 261.062 27.5C261.062 21.5625 259.375 16.7656 256 13.1094ZM252.203 78.4062V82.625C252.203 91.9062 251.703 96.5469 250.703 96.5469C250.422 96.5469 250.281 96.625 250.281 96.7812C250.281 102.031 251.766 106.672 254.734 110.703C256.359 111.984 257.688 112.625 258.719 112.625H258.953C263.422 112.625 266.312 105.797 267.625 92.1406V89.6094C267.625 81.1094 265.359 75.4062 260.828 72.5L259.562 72.2656C257.062 72.2656 254.609 74.3125 252.203 78.4062ZM277.453 67.8594C278.484 67.8594 279 75.75 279 91.5312V95.5156L281.203 95.2812H284.953C288.422 95.2812 290.484 95.5781 291.141 96.1719H291.375V95.9375C291.375 91.25 291.672 82.3281 292.266 69.1719L293.109 68.5156H293.344L294.234 69.1719C294.672 77.7969 294.891 86.7188 294.891 95.9375V103.016C294.891 111.422 294.375 115.625 293.344 115.625C293.094 115.75 292.797 115.812 292.453 115.812H292.031C291.156 115.25 290.719 114.594 290.719 113.844C291 108.344 291.141 103.266 291.141 98.6094C290.672 98.8906 290.297 99.0312 290.016 99.0312C285.828 98.75 282.516 98.6094 280.078 98.6094H279V98.7969C279 110.609 278.625 116.516 277.875 116.516C277.625 116.516 277.25 116.656 276.75 116.938C275.438 116.688 274.781 116.031 274.781 114.969C275.406 83.5625 276.062 67.8594 276.75 67.8594H277.453ZM316.344 67.8594C322.312 67.8594 327.016 74.2812 330.453 87.125C331.141 90.3125 331.484 93.2188 331.484 95.8438C331.484 97.6562 331.219 99.6719 330.688 101.891C332.75 117.516 333.781 126.422 333.781 128.609C333.594 129.203 333.25 129.625 332.75 129.875H332.141C330.766 129.875 329.922 127.656 329.609 123.219L328.156 108.078C324.281 113.484 320.078 116.188 315.547 116.188C309.234 116.188 305.422 111.203 304.109 101.234C303.984 98.3906 303.844 96.4531 303.688 95.4219C303.844 94.8906 303.922 94.4062 303.922 93.9688C303.922 92.7188 303.781 91.0625 303.5 89C304.188 77.5312 307.641 70.625 313.859 68.2812L316.344 67.8594ZM307.016 95.2344C307.016 104.203 308.953 109.875 312.828 112.25C313.516 112.656 314.422 112.859 315.547 112.859C320.422 112.859 324.281 109.203 327.125 101.891L327.359 100.812C326.172 87.4062 325.344 80.7031 324.875 80.7031C321.906 74.6406 319.062 71.6094 316.344 71.6094C312.031 71.6094 309.062 77.3438 307.438 88.8125C307.156 91.1562 307.016 93.2969 307.016 95.2344ZM358.422 68.5156H359.078C361.234 68.5156 362.875 69.1875 364 70.5312V70.9531C364 71.3906 363.703 71.6094 363.109 71.6094C363.234 72.4531 363.297 73.0469 363.297 73.3906C363.297 98.6406 362.406 111.266 360.625 111.266L359.547 111.5H358.844C358.062 111.156 357.547 110.484 357.297 109.484C358.047 101.766 358.422 97.2344 358.422 95.8906V95.6562H358.188C355 101.844 350.766 108.375 345.484 115.25C342.422 118.969 340.641 120.828 340.141 120.828H339.719C338.75 120.828 338.156 120.156 337.938 118.812C337.938 118.062 340.391 114.797 345.297 109.016C348.109 105.266 351.141 100.594 354.391 95C353.734 95.3125 353 95.4688 352.188 95.4688C347.875 94.625 345.719 91.6562 345.719 86.5625V86.0938C345.719 79.3438 348.391 73.9219 353.734 69.8281C355.391 68.9531 356.953 68.5156 358.422 68.5156ZM349.516 86.0938C349.516 89.5625 350.625 91.5 352.844 91.9062C355.906 91.9062 357.984 90.8594 359.078 88.7656C359.078 87.2969 359.453 81.5156 360.203 71.4219H359.547C355.141 71.4219 351.875 75.3438 349.75 83.1875C349.594 85.0312 349.516 86 349.516 86.0938Z" fill="#F4C6D3"/>
</svg>
